HIERARCHY
ROOT root
{
	OFFSET	0	13.1	24.9
	CHANNELS 6  Xposition Yposition Zposition Xrotation Yrotation Zrotation
	JOINT spine_1
	{
		OFFSET	0	9.99999	0
		CHANNELS 3  Xrotation Yrotation Zrotation
		JOINT spine_2
		{
			OFFSET	0	112	-10
			CHANNELS 3  Xrotation Yrotation Zrotation
			JOINT spine_3
			{
				OFFSET	0	206.5	19.3
				CHANNELS 3  Xrotation Yrotation Zrotation
				JOINT spine_4
				{
					OFFSET	0	110.4	14.6
					CHANNELS 3  Xrotation Yrotation Zrotation
					JOINT neck_1
					{
						OFFSET	0	71.8	-50.3
						CHANNELS 3  Xrotation Yrotation Zrotation
						JOINT neck_2
						{
							OFFSET	0	86.2	-25.8
							CHANNELS 3  Xrotation Yrotation Zrotation
							JOINT head_ee
							{
								OFFSET	0	179.8	-8.7
								CHANNELS 3  Xrotation Yrotation Zrotation
								End Site
								{
									OFFSET	1	0	0
								}
							}
						}
					}
					JOINT left_clavicle
					{
						OFFSET	-43.2	22.4	-70.8
						CHANNELS 3  Xrotation Yrotation Zrotation
						JOINT left_shoulder
						{
							OFFSET	-93.9	-5.79999	48.7
							CHANNELS 3  Xrotation Yrotation Zrotation
							JOINT left_elbow
							{
								OFFSET	-291.4	-30.8	15.2
								CHANNELS 3  Xrotation Yrotation Zrotation
								JOINT left_lowarm_twist
								{
									OFFSET	-110.7	-3.89999	13.6
									CHANNELS 3  Xrotation Yrotation Zrotation
									JOINT left_hand
									{
										OFFSET	-110.7	-3.89999	13.6
										CHANNELS 3  Xrotation Yrotation Zrotation
										JOINT left_ee
										{
											OFFSET	-80.8	-5.10001	12.1
											CHANNELS 3  Xrotation Yrotation Zrotation
											End Site
											{
												OFFSET	1	0	0
											}
										}
									}
								}
							}
						}
					}
					JOINT right_clavicle
					{
						OFFSET	43.2	22.4	-70.8
						CHANNELS 3  Xrotation Yrotation Zrotation
						JOINT right_shoulder
						{
							OFFSET	93.9	-5.79999	48.7
							CHANNELS 3  Xrotation Yrotation Zrotation
							JOINT right_elbow
							{
								OFFSET	291.4	-30.8	15.2
								CHANNELS 3  Xrotation Yrotation Zrotation
								JOINT right_lowarm_twist
								{
									OFFSET	110.7	-3.89999	13.6
									CHANNELS 3  Xrotation Yrotation Zrotation
									JOINT right_hand
									{
										OFFSET	110.7	-3.89999	13.6
										CHANNELS 3  Xrotation Yrotation Zrotation
										JOINT right_ee
										{
											OFFSET	80.8	-5.10001	12.1
											CHANNELS 3  Xrotation Yrotation Zrotation
											End Site
											{
												OFFSET	1	0	0
											}
										}
									}
								}
							}
						}
					}
				}
			}
		}
	}
	JOINT left_hip
	{
		OFFSET	-82.8	-127.5	0.300001
		CHANNELS 3  Xrotation Yrotation Zrotation
		JOINT left_knee
		{
			OFFSET	-28.2	-396.7	2.2
			CHANNELS 3  Xrotation Yrotation Zrotation
			JOINT left_ankle
			{
				OFFSET	-11.7	-411.3	35.4
				CHANNELS 3  Xrotation Yrotation Zrotation
				JOINT left_toes
				{
					OFFSET	0	-60	-88.6
					CHANNELS 3  Xrotation Yrotation Zrotation
					JOINT left_foot_ee
					{
						OFFSET	-22.5	-16.5	-42.2
						CHANNELS 3  Xrotation Yrotation Zrotation
						End Site
						{
							OFFSET	1	0	0
						}
					}
				}
			}
		}
	}
	JOINT right_hip
	{
		OFFSET	82.8	-127.5	0.300001
		CHANNELS 3  Xrotation Yrotation Zrotation
		JOINT right_knee
		{
			OFFSET	28.2	-396.7	2.2
			CHANNELS 3  Xrotation Yrotation Zrotation
			JOINT right_ankle
			{
				OFFSET	11.7	-411.3	35.4
				CHANNELS 3  Xrotation Yrotation Zrotation
				JOINT right_toes
				{
					OFFSET	0	-60	-88.6
					CHANNELS 3  Xrotation Yrotation Zrotation
					JOINT right_foot_ee
					{
						OFFSET	22.5	-16.5	-42.2
						CHANNELS 3  Xrotation Yrotation Zrotation
						End Site
						{
							OFFSET	1	0	0
						}
					}
				}
			}
		}
	}
}
MOTION
Frames: 16
Frame Time: 0.02
672.75 672.731 -637.752 171.133 -75.4858 162.469 -2.24987 0.913616 6.03288 -2.22979 0.528603 6.07856 -2.15105 -0.990106 6.02084 -2.20159 -0.0286422 6.10135 -3.53625 0.478525 -6.69996 -3.37949 6.0507 -6.87187 -0.0 0.0 -0.0 -5.42466 22.4269 -5.03616 -8.42107 -12.1108 73.576 0.22025 -6.22681 0.01198 26.6432 0.157849 -3.36927 -1.2463 28.9309 4.55498 -0.0 0.0 -0.0 13.152 26.9638 -25.9109 25.4035 16.1248 -63.7165 1.9804 44.4465 -0.809192 22.7547 -0.232938 2.87832 2.6173 17.837 -9.90693 0.0 0.0 0.0 19.4425 31.8079 5.54291 5.11101 -0.243955 -0.745933 16.2999 20.6602 -2.3234 -20.1126 0.0 0.0 -0.0 0.0 -0.0 -26.709 5.45353 12.4785 -7.85447 -0.242817 -1.18003 38.3603 12.7082 4.95006 -0.745006 0.0 0.0 0.0 0.0 0.0 
687.145 673.178 -643.155 173.275 -75.5722 164.968 -2.14116 0.812407 5.97696 -2.12141 0.431135 6.01635 -2.05487 -1.0596 5.93826 -2.10402 -0.110247 6.03072 -2.97581 0.27781 -6.79949 -2.81378 5.81271 -7.04944 -0.0 0.0 -0.0 -5.29743 21.8126 -5.0185 -6.8221 -12.4375 74.0059 0.25774 -7.27615 0.0163876 26.4775 0.161726 -3.34847 -1.19275 28.9179 4.8376 -0.0 0.0 -0.0 13.1309 27.0896 -25.8465 24.7739 15.861 -63.4601 1.93048 43.7157 -0.77446 22.6634 -0.234299 2.86674 2.54099 16.9128 -9.83025 0.0 0.0 0.0 19.2613 31.7565 5.76713 4.72037 -0.222964 -0.689701 16.6712 20.7042 -2.37334 -20.2513 0.0 0.0 -0.0 0.0 -0.0 -26.737 5.96788 12.7353 -8.64904 -0.258315 -1.30097 38.1656 12.4823 4.92608 -0.510629 0.0 0.0 0.0 0.0 0.0 
708.817 675.991 -649.368 174.456 -75.2742 166.555 -2.09824 0.746909 5.98124 -2.07843 0.365498 6.01647 -2.01928 -1.11991 5.92295 -2.06815 -0.172208 6.02507 -2.53826 0.269756 -6.7411 -2.3764 5.79075 -7.02439 -0.0 0.0 -0.0 -5.03327 21.3055 -4.76765 -5.66608 -12.8148 74.0934 0.312011 -8.78637 0.0239707 26.2731 0.166427 -3.32278 -1.17437 28.9015 4.92952 -0.0 0.0 -0.0 13.0009 27.0871 -25.5469 23.1421 15.777 -63.8005 1.91196 43.4401 -0.761698 22.5311 -0.23624 2.84995 2.51063 16.207 -9.95686 0.0 0.0 0.0 19.0646 31.6512 5.76609 4.20427 -0.195822 -0.615198 16.6892 20.9769 -2.37843 -20.4363 0.0 0.0 -0.0 0.0 -0.0 -26.5882 6.46969 12.8534 -8.51093 -0.255742 -1.27994 37.3771 12.2434 4.84678 -0.486994 0.0 0.0 0.0 0.0 0.0 
729.817 682.834 -658.667 174.897 -75.2786 167.39 -2.12958 0.53386 5.94793 -2.10993 0.154984 5.96975 -2.07405 -1.31913 5.82476 -2.12115 -0.384381 5.95942 -2.30064 0.309168 -6.64144 -2.14138 5.80368 -6.93335 -0.0 0.0 -0.0 -4.52209 20.7708 -4.15278 -4.63665 -13.9448 73.7935 0.32201 -9.06334 0.0255219 25.6346 0.180525 -3.24242 -1.24924 28.765 4.46797 -0.0 0.0 -0.0 12.4267 27.5236 -24.174 22.0206 15.8898 -64.4977 1.89265 43.1499 -0.748452 21.7773 -0.246557 2.75422 2.50359 14.4646 -10.7209 0.0 0.0 0.0 18.4986 31.5788 5.86855 2.76695 -0.123793 -0.406481 15.5347 21.5108 -2.22876 -20.7981 0.0 0.0 -0.0 0.0 -0.0 -26.3149 7.51144 13.4764 -9.31074 -0.269941 -1.40184 36.0813 11.7628 4.71152 -0.953694 0.0 0.0 0.0 0.0 0.0 
749.68 692.511 -664.493 175.493 -74.743 168.0 -2.02208 0.643413 5.80773 -2.00337 0.273192 5.83678 -1.95667 -1.1593 5.72738 -2.00234 -0.241827 5.83815 -2.17537 0.178685 -6.54217 -2.02222 5.50002 -6.85554 -0.0 0.0 -0.0 -4.41242 20.3758 -4.08592 -1.9993 -13.5115 74.2192 0.388408 -10.8912 0.0370273 25.7177 0.178739 -3.2529 -1.19364 28.7399 4.75699 -0.0 0.0 -0.0 12.3185 27.4762 -23.9326 18.9205 15.6269 -64.6435 1.8533 42.5499 -0.72169 21.6025 -0.248769 2.73201 2.46572 14.4889 -10.4514 0.0 0.0 0.0 16.4402 31.4894 6.37972 2.98207 -0.134239 -0.437831 16.565 21.0903 -2.363 -21.0253 0.0 0.0 -0.0 0.0 -0.0 -24.3801 8.17579 14.7589 -11.3631 -0.298578 -1.71544 36.6096 11.0961 4.74546 -0.530477 0.0 0.0 0.0 0.0 0.0 
775.803 703.664 -672.207 175.829 -74.6639 168.465 -1.92947 0.569012 5.59937 -1.91206 0.212132 5.62413 -1.87432 -1.15868 5.50793 -1.91652 -0.2757 5.62138 -1.98664 0.334649 -6.21629 -1.84471 5.53798 -6.50581 -0.0 0.0 -0.0 -4.16439 19.917 -3.82501 0.0440108 -13.9613 74.1872 0.460017 -12.8375 0.0517519 25.3616 0.186276 -3.20804 -1.23995 28.793 4.53003 -0.0 0.0 -0.0 12.0302 27.5728 -23.2635 15.5906 15.1154 -64.2544 1.78302 41.449 -0.674666 21.1392 -0.254306 2.67308 2.51535 14.1689 -10.9379 0.0 0.0 0.0 14.3081 31.396 7.55085 3.1621 -0.143071 -0.464036 16.1708 21.2224 -2.31156 -21.2505 0.0 0.0 -0.0 0.0 -0.0 -22.6811 9.26325 14.5818 -12.9041 -0.312685 -1.95146 36.4646 10.379 4.71472 -0.617333 0.0 0.0 0.0 0.0 0.0 
794.898 706.351 -677.023 177.313 -75.1461 170.15 -1.89556 0.564548 5.42959 -1.87919 0.21843 5.45441 -1.84257 -1.10818 5.34544 -1.88234 -0.251377 5.453 -1.79436 0.587182 -5.33998 -1.68435 5.30919 -5.5608 -0.0 0.0 -0.0 -4.07732 19.7894 -3.72434 1.6795 -14.4871 73.6843 0.522318 -14.5068 0.0664792 24.7155 0.199239 -3.12652 -1.34129 28.7572 3.96867 -0.0 0.0 -0.0 11.7394 27.7277 -22.5836 12.8185 15.0287 -63.9825 1.72288 40.476 -0.635234 20.4803 -0.261357 2.58922 2.49391 13.3927 -11.1486 0.0 0.0 0.0 13.2124 31.3321 8.49578 3.16485 -0.143207 -0.464438 17.7293 21.6119 -2.52327 -21.2444 0.0 0.0 -0.0 0.0 -0.0 -21.6338 10.214 14.4418 -14.0452 -0.319039 -2.12642 36.9733 9.44146 4.74168 -0.409126 0.0 0.0 0.0 0.0 0.0 
812.073 708.345 -679.988 176.963 -74.9244 170.166 -1.92688 0.538554 5.1901 -1.91193 0.207661 5.21377 -1.87845 -1.06336 5.10869 -1.91476 -0.244341 5.21219 -1.82363 0.557245 -5.78462 -1.69595 5.60759 -6.03322 -0.0 0.0 -0.0 -3.92204 19.5247 -3.55161 3.61993 -14.6923 73.2383 0.572763 -15.8404 0.079684 24.9475 0.194691 -3.1558 -1.28386 28.6861 4.24727 -0.0 0.0 -0.0 11.3983 28.0701 -21.7692 11.1377 14.981 -64.1378 1.67898 39.7476 -0.606952 20.3759 -0.262385 2.57593 2.51776 13.0754 -11.4574 0.0 0.0 0.0 11.9822 31.2311 8.86102 3.0018 -0.135203 -0.440703 15.8884 21.2928 -2.27433 -21.58 0.0 0.0 -0.0 0.0 -0.0 -20.7933 10.699 14.2423 -15.0641 -0.321766 -2.28272 36.0508 9.54099 4.65658 -0.711998 0.0 0.0 0.0 0.0 0.0 
829.008 714.376 -687.349 173.738 -76.0813 166.98 -1.94975 0.536839 5.06944 -1.93548 0.213597 5.09325 -1.90246 -1.03031 4.99278 -1.93715 -0.229932 5.09254 -1.61631 0.292577 -5.08906 -1.51964 4.58974 -5.34372 -0.0 0.0 -0.0 -3.52613 19.3989 -2.98526 5.58654 -15.0193 72.9458 0.757463 -20.5673 0.137433 23.837 0.215387 -3.01546 -1.74205 28.9676 1.91086 -0.0 0.0 -0.0 10.6991 27.6675 -20.2432 8.53996 14.6825 -65.2377 1.46815 36.0253 -0.477413 19.7349 -0.268172 2.49425 2.82584 14.0557 -13.1194 0.0 0.0 0.0 8.48369 30.9684 9.97113 2.93942 -0.132158 -0.431619 20.0509 20.1988 -2.80967 -21.7239 0.0 0.0 -0.0 0.0 -0.0 -16.0825 12.8357 13.5364 -26.2278 -0.169967 -3.98632 39.3411 8.04163 4.92727 -0.183195 0.0 0.0 0.0 0.0 0.0 
852.517 721.263 -693.266 170.715 -76.4111 164.414 -2.03235 0.491281 4.58004 -2.0207 0.199161 4.60196 -1.99297 -0.931678 4.51125 -2.0213 -0.208308 4.60155 -1.92738 0.420249 -4.06957 -1.86429 3.99005 -4.23138 -0.0 0.0 -0.0 -3.21938 19.9887 -2.40612 7.23508 -15.2525 72.6171 0.910081 -24.2668 0.195664 22.7191 0.23347 -2.87381 -2.14398 28.6348 -0.405325 -0.0 0.0 -0.0 10.0033 27.4276 -18.7131 6.62748 14.4597 -65.8371 1.31609 33.1009 -0.391121 18.9323 -0.274127 2.39191 3.01017 14.2854 -14.2823 0.0 0.0 0.0 5.60391 30.7023 10.7756 2.52783 -0.112319 -0.371589 23.2939 19.3958 -3.20716 -21.7469 0.0 0.0 -0.0 0.0 -0.0 -13.4233 14.3795 13.4637 -33.8959 0.124765 -5.12532 39.4674 6.53238 4.91025 0.131222 -0.0 -0.0 0.0 0.0 0.0 
869.584 722.822 -698.274 169.001 -76.7449 162.705 -2.02526 0.517564 4.28232 -2.01509 0.244279 4.30651 -1.98629 -0.81487 4.2359 -2.01129 -0.136313 4.31127 -2.80935 0.455689 -2.5991 -2.78341 2.86004 -2.64515 -0.0 0.0 -0.0 -2.76916 19.2422 -1.88243 9.29995 -15.5646 72.2584 1.02027 -26.812 0.243181 22.2793 0.239825 -2.818 -2.32857 28.5406 -1.44594 -0.0 0.0 -0.0 9.53098 27.5581 -17.6455 4.74139 14.2868 -66.3134 1.20076 30.744 -0.330125 18.6671 -0.27578 2.35808 3.36713 15.7922 -16.0254 0.0 0.0 0.0 3.74262 30.1828 11.3177 2.33247 -0.103054 -0.343048 26.3418 18.3499 -3.55988 -21.9479 0.0 0.0 -0.0 0.0 -0.0 -10.5182 15.5319 13.9222 -41.7212 0.579883 -6.23753 39.5918 6.31371 4.91733 0.334456 -0.0 -0.0 0.0 0.0 0.0 
892.286 726.994 -705.307 167.134 -77.3899 160.808 -2.01982 0.501573 4.0006 -2.01095 0.246198 4.02436 -1.9845 -0.743786 3.96278 -2.00639 -0.109134 4.0304 -2.66736 0.717189 -2.28533 -2.64506 3.09226 -2.28569 -0.0 0.0 -0.0 -2.33291 19.8911 -1.11454 11.3918 -15.7448 72.2629 1.12892 -29.2144 0.294222 21.9715 0.244019 -2.7789 -2.44848 27.9039 -2.41982 -0.0 0.0 -0.0 8.98691 25.9764 -16.6096 1.20563 13.73 -66.8098 1.1175 28.9669 -0.288669 18.5955 -0.276199 2.34895 3.38574 15.803 -16.1492 0.0 0.0 0.0 1.0141 30.1589 12.3453 1.76482 -0.0766867 -0.259942 29.2881 16.8117 -3.87723 -21.7808 0.0 0.0 -0.0 0.0 -0.0 -7.6615 16.6815 13.7497 -47.0664 0.976378 -6.95763 39.7953 4.39797 4.9052 0.621464 -0.0 -0.0 0.0 0.0 0.0 
910.229 729.306 -708.374 164.731 -78.0728 158.651 -1.92882 0.489423 3.68357 -1.9213 0.2542 3.70721 -1.89719 -0.652822 3.65819 -1.91585 -0.0673025 3.71529 -3.8793 1.32238 -1.84093 -3.86208 3.82805 -1.69021 -0.0 0.0 -0.0 -1.73357 20.6746 -0.104826 15.1317 -16.0968 72.2248 1.17478 -30.1964 0.316952 21.059 0.255215 -2.66288 -2.5642 25.6122 -4.24983 -0.0 0.0 -0.0 8.80811 26.0307 -16.2075 -1.3901 13.463 -67.2683 0.978152 25.8519 -0.224499 18.4893 -0.2768 2.33539 3.25726 14.6603 -15.8152 0.0 0.0 0.0 -0.749731 30.0361 12.5843 1.52213 -0.0656663 -0.224335 33.4109 15.3452 -4.30125 -24.1187 0.0 0.0 -0.0 0.0 -0.0 -4.23869 19.3926 11.6267 -51.3087 1.33804 -7.50141 40.0547 1.7872 4.89613 -0.978337 0.0 0.0 0.0 0.0 0.0 
932.529 731.245 -712.271 158.953 -77.6139 153.37 -1.96633 0.357 3.26907 -1.96039 0.148372 3.28514 -1.94597 -0.655818 3.22249 -1.96044 -0.138942 3.28555 -5.06022 2.12386 -0.394068 -5.05551 4.20119 -0.0321943 -0.0 0.0 -0.0 -1.25526 21.0436 0.643064 18.8533 -16.5134 72.1842 1.08126 -28.1738 0.271338 20.7236 0.258865 -2.6202 -2.42017 22.7067 -4.93764 -0.0 0.0 -0.0 8.48363 25.4075 -15.5534 -5.13737 14.1261 -67.0481 0.967803 25.6136 -0.220005 18.4187 -0.277186 2.32639 3.3225 14.901 -16.152 0.0 0.0 0.0 -3.29982 30.9937 12.9367 -0.501985 0.0203443 0.0743485 35.9562 16.9828 -4.58202 -25.3167 0.0 0.0 -0.0 0.0 -0.0 0.635471 20.5373 10.6919 -58.4113 2.03091 -8.3481 39.8545 0.0156693 4.86353 -2.67758 0.0 0.0 0.0 0.0 0.0 
945.24 732.423 -713.686 159.652 -77.3431 153.851 -1.76406 0.338659 3.02006 -1.759 0.145889 3.03547 -1.74646 -0.586966 2.9818 -1.75885 -0.108907 3.03702 -6.27102 2.81166 0.590761 -6.26889 4.77047 1.13287 -0.0 0.0 -0.0 -0.58587 21.2671 1.63439 21.5071 -16.4585 72.3214 1.00994 -26.578 0.238541 20.4996 0.261164 -2.59168 -2.39002 20.9321 -5.67263 -0.0 0.0 -0.0 8.68256 24.8094 -16.0536 -7.27325 14.6611 -67.1688 0.820201 22.1119 -0.160265 18.0348 -0.279089 2.27738 3.25942 13.9341 -16.1806 0.0 0.0 0.0 -4.9559 31.7276 14.0522 -0.939287 0.0375349 0.139257 39.4659 17.8562 -4.93334 -25.3781 0.0 0.0 -0.0 0.0 -0.0 3.2433 20.7424 9.25622 -60.2449 2.22649 -8.55237 39.757 -1.55012 4.8454 -3.88152 0.0 0.0 0.0 0.0 0.0 
959.649 736.315 -719.605 161.907 -74.9642 156.021 -1.71446 0.415542 3.08256 -1.7092 0.218645 3.10273 -1.69227 -0.529503 3.06506 -1.70538 -0.0390335 3.11017 -7.48661 2.49716 1.6201 -7.48097 3.49067 2.13564 -0.0 0.0 -0.0 0.0578899 21.276 2.55678 23.2172 -16.9846 71.2042 0.963581 -25.5161 0.218183 20.5058 0.261102 -2.59246 -2.32504 19.5894 -5.97123 -0.0 0.0 -0.0 8.3919 23.5792 -15.5283 -7.9777 15.8563 -67.2435 0.836592 22.5101 -0.166488 18.1175 -0.278706 2.28794 3.5243 15.4284 -17.2997 0.0 0.0 0.0 -6.06605 31.6813 14.2775 -2.17183 0.0833111 0.322871 39.0556 18.7389 -4.91289 -27.7105 0.0 0.0 -0.0 0.0 -0.0 5.86296 20.8422 7.934 -61.0817 2.31791 -8.64352 37.5626 -3.60537 4.6424 -5.07147 0.0 0.0 0.0 0.0 0.0 
